<?xml version="1.0" standalone="no"?><!DOCTYPE svg PUBLIC "-//W3C//DTD SVG 1.1//EN" "http://www.w3.org/Graphics/SVG/1.1/DTD/svg11.dtd">
<svg class="icon" width="20px" height="20.00px" viewBox="0 0 1024 1024" version="1.1" xmlns="http://www.w3.org/2000/svg">
    <path d="M784.01 336c-26.51 0-48 21.49-48 48s21.49 48 48 48 48-21.49 48-48-21.49-48-48-48z" fill="#3A80FC"/>
    <path
        d="M876.01 482.57h-588v-98.44c0-59.83 23.3-116.08 65.61-158.39 42.31-42.31 98.56-65.61 158.39-65.61 59.83 0 116.08 23.3 158.39 65.61 42.31 42.31 65.61 98.56 65.61 158.39h96c0-176.73-143.27-320-320-320s-320 143.27-320 320v98.44H148.7c-11 0-20 9-20 20v437.6c0 11 9 20 20 20h727.32c11 0 20-9 20-20v-437.6c-0.01-11-9.01-20-20.01-20zM544 759.75v124.26c0 6.6-5.4 12-12 12h-40c-6.6 0-12-5.4-12-12V759.75c-19.18-11.08-32.09-31.78-32.09-55.52 0-35.4 28.69-64.09 64.09-64.09s64.09 28.69 64.09 64.09c0 23.73-12.91 44.44-32.09 55.52z"
        fill="#3A80FC"/>
</svg>