<?xml version="1.0" standalone="no"?><!DOCTYPE svg PUBLIC "-//W3C//DTD SVG 1.1//EN" "http://www.w3.org/Graphics/SVG/1.1/DTD/svg11.dtd">
<svg class="icon" width="20px" height="20.00px" viewBox="0 0 1024 1024" version="1.1" xmlns="http://www.w3.org/2000/svg">
    <path
        d="M896 938.666667c-12.8 0-21.333333-4.266667-29.866667-12.8L708.266667 768C640 823.466667 554.666667 853.333333 469.333333 853.333333c-213.333333 0-384-170.666667-384-384s170.666667-384 384-384 384 170.666667 384 384c0 85.333333-29.866667 170.666667-85.333333 238.933334l157.866667 157.866666c8.533333 8.533333 12.8 17.066667 12.8 29.866667 0 12.8-4.266667 21.333333-12.8 29.866667-8.533333 8.533333-17.066667 12.8-29.866667 12.8zM469.333333 170.666667c-166.4 0-298.666667 132.266667-298.666666 298.666666s132.266667 298.666667 298.666666 298.666667 298.666667-132.266667 298.666667-298.666667-132.266667-298.666667-298.666667-298.666666z m0 554.666666c-140.8 0-256-115.2-256-256s115.2-256 256-256 256 115.2 256 256-115.2 256-256 256z m29.866667-426.666666c-17.066667 0-29.866667 12.8-29.866667 29.866666 0 17.066667 12.8 29.866667 29.866667 29.866667 21.333333 0 42.666667 8.533333 59.733333 25.6 17.066667 17.066667 25.6 38.4 25.6 59.733333 0 17.066667 12.8 29.866667 29.866667 29.866667 17.066667 0 29.866667-12.8 29.866667-29.866667C640 362.666667 576 298.666667 499.2 298.666667z"
        fill="#3980FC"/>
</svg>